<svg width="30" height="30" viewBox="0 0 30 30" fill="none" xmlns="http://www.w3.org/2000/svg">
<path fill-rule="evenodd" clip-rule="evenodd" d="M29.5098 22.8501L18.4898 2.64007C16.9798 -0.119932 13.0198 -0.119932 11.5098 2.64007L0.489778 22.8501C-0.950222 25.5001 0.959779 28.7301 3.97978 28.7301H26.0198C29.0398 28.7301 30.9498 25.5001 29.5098 22.8501ZM26.0198 26.0801H3.97978C2.96978 26.0801 2.33978 25.0001 2.81978 24.1201L13.8398 3.91007C14.3398 2.99007 15.6598 2.99007 16.1598 3.91007L27.1798 24.1201C27.6598 25.0001 27.0198 26.0801 26.0198 26.0801Z" fill="#2F4062"/>
<path fill-rule="evenodd" clip-rule="evenodd" d="M20.4899 16.6801C20.2399 14.1501 18.2699 12.1301 15.7699 11.7801V10.6201H14.4499V11.7501C11.8499 12.0101 9.77986 14.0701 9.50986 16.6701H8.36986L8.35986 17.9901H9.53986C9.87986 20.5101 11.9099 22.4801 14.4499 22.7301V23.8701H15.7699V22.7001C18.2099 22.3601 20.1299 20.4401 20.4599 18.0001H21.6199L21.6299 16.6901H20.4899V16.6801ZM19.1299 17.9901C18.8299 19.7001 17.4799 21.0501 15.7699 21.3601V20.5501H14.4499V21.4001C12.6399 21.1701 11.1999 19.7801 10.8799 18.0101H11.6799V16.6901L10.8399 16.6801C11.0899 14.8001 12.5699 13.3201 14.4499 13.0801V13.9301H15.7699V13.1201C17.5399 13.4401 18.9199 14.8701 19.1599 16.6701H18.3099L18.2999 17.9901H19.1299Z" fill="#2F4062"/>
<path d="M16.0999 17.2399C16.0999 17.8499 15.6099 18.3399 14.9999 18.3399C14.3899 18.3399 13.8999 17.8499 13.8999 17.2399C13.8999 16.6299 14.3899 16.1399 14.9999 16.1399C15.6099 16.1399 16.0999 16.6299 16.0999 17.2399Z" fill="#2F4062"/>
</svg>
